Coordinates
version=1
nRows=16
nColumns=22
inDegrees=yes

Units are S.I. units (second, meters, Newtons, ...)
If the header above contains a line with 'inDegrees', this indicates whether rotational values are in degrees (yes) or radians (no).

endheader
time	pelvis_tilt	pelvis_list	pelvis_rotation	pelvis_tx	pelvis_ty	pelvis_tz	hip_flexion_r	hip_adduction_r	hip_rotation_r	knee_angle_r	ankle_angle_r	subtalar_angle_r	hip_flexion_l	hip_adduction_l	hip_rotation_l	knee_angle_l	ankle_angle_l	subtalar_angle_l	lumbar_extension	lumbar_bending	lumbar_rotation
      1.47000000	     -2.15529271	     -7.03591504	      8.38328814	      1.16588469	      0.96518984	     -0.31163322	      8.45360794	      8.81167168	     -7.66662812	    -15.91948070	      7.80427681	      0.26300427	     11.37068377	     -8.40301069	      7.29897369	    -18.52824010	     10.57858668	      3.38102664	      0.33811793	      6.54788486	     -6.79937726
      1.48000000	     -2.20726919	     -6.94280466	      8.67367311	      1.16356255	      0.96527650	     -0.31148814	      8.64263283	      8.66723752	     -7.94400824	    -15.88706911	      7.72501592	      0.27517984	     11.71445468	     -8.24282922	      7.59246042	    -18.67444341	     10.47603385	      3.61982453	      0.22251376	      6.51635498	     -6.79753334
      1.49000000	     -2.24205487	     -6.86130148	      8.95426503	      1.16122683	      0.96536257	     -0.31138488	      8.80893796	      8.53510048	     -8.21377868	    -15.84465129	      7.63627358	      0.28232944	     12.02980817	     -8.09588873	      7.87793801	    -18.82887138	     10.43957738	      3.90024561	      0.09692637	      6.50317960	     -6.78276566
      1.50000000	     -2.26205176	     -6.79588071	      9.22546214	      1.15888426	      0.96543519	     -0.31131712	      8.95856923	      8.41972328	     -8.47833763	    -15.79823855	      7.54142859	      0.28371474	     12.32757599	     -7.96593019	      8.15613014	    -19.01548956	     10.49278456	      4.22874683	     -0.03335430	      6.51098987	     -6.76022106
      1.51000000	     -2.29427999	     -6.75396596	      9.45198040	      1.15652142	      0.96545708	     -0.31120385	      9.12232372	      8.33618039	     -8.66753529	    -15.74990165	      7.42966301	      0.27091418	     12.64430077	     -7.86835313	      8.37500384	    -19.26604278	     10.66062557	      4.75746462	     -0.14173577	      6.53788747	     -6.70032936
      1.52000000	     -2.26383027	     -6.71432349	      9.69949009	      1.15422219	      0.96553263	     -0.31118171	      9.21057444	      8.25456405	     -8.92606771	    -15.69328959	      7.35775449	      0.26623954	     12.86460131	     -7.77408000	      8.63310542	    -19.52842155	     10.87050971	      5.01494764	     -0.29763585	      6.57781840	     -6.66326855
      1.53000000	     -2.27891846	     -6.69291935	      9.91039920	      1.15187605	      0.96553886	     -0.31113245	      9.35106572	      8.19141385	     -9.09929455	    -15.63639134	      7.22802747	      0.25298362	     13.14041826	     -7.69824131	      8.82871463	    -19.87640668	     11.16074150	      5.49472712	     -0.39326045	      6.62761670	     -6.62424976
      1.54000000	     -2.25836283	     -6.67374761	     10.10903250	      1.14958593	      0.96558020	     -0.31108086	      9.44400540	      8.13757561	     -9.28175595	    -15.56837298	      7.12393211	      0.24596711	     13.34545246	     -7.64018454	      8.97900525	    -20.25909531	     11.49845406	      5.81466138	     -0.51043426	      6.67545734	     -6.56835909
      1.55000000	     -2.21765762	     -6.66612923	     10.28449017	      1.14733068	      0.96563399	     -0.31103697	      9.51530220	      8.09830130	     -9.46078080	    -15.50422919	      7.05151739	      0.24638891	     13.49978866	     -7.60817906	      9.07018358	    -20.68868498	     11.87315972	      5.96586098	     -0.63126978	      6.73641289	     -6.49330690
      1.56000000	     -2.20841959	     -6.67119379	     10.46692090	      1.14502569	      0.96565834	     -0.31098186	      9.61762377	      8.07037250	     -9.60027361	    -15.42216330	      6.90311785	      0.24810268	     13.68645604	     -7.58761993	      9.14170175	    -21.19475566	     12.23610417	      6.19350104	     -0.70358874	      6.79320998	     -6.48830277
      1.57000000	     -2.16612779	     -6.67090883	     10.60888743	      1.14280555	      0.96572268	     -0.31090108	      9.67946032	      8.04524255	     -9.73946244	    -15.34646904	      6.81026632	      0.25309633	     13.78401170	     -7.58988922	      9.12429217	    -21.72535901	     12.62594099	      6.24341771	     -0.79445380	      6.84171734	     -6.42639421
      1.58000000	     -2.13477106	     -6.70014018	     10.76093623	      1.14055710	      0.96576421	     -0.31080459	      9.75608033	      8.05188623	     -9.86768862	    -15.25850723	      6.68073385	      0.26098312	     13.89135858	     -7.63013699	      9.07904276	    -22.32230850	     13.01050326	      6.27874203	     -0.85470515	      6.90767042	     -6.41074810
      1.59000000	     -2.12187195	     -6.74728208	     10.90529289	      1.13830764	      0.96578130	     -0.31069570	      9.85162009	      8.07626272	     -9.97694499	    -15.16108011	      6.52378822	      0.26414803	     14.00323838	     -7.69775939	      9.00378333	    -22.97363991	     13.36877390	      6.31501423	     -0.87465075	      6.98056834	     -6.43579121
      1.60000000	     -2.08086770	     -6.78308753	     11.01590891	      1.13611511	      0.96582754	     -0.31057250	      9.92207051	      8.09386700	    -10.08919800	    -15.08650128	      6.41355802	      0.27112920	     14.02628048	     -7.78063219	      8.87025441	    -23.62713221	     13.74084262	      6.27425119	     -0.91346599	      7.03796045	     -6.41386606
      1.61000000	     -2.04631806	     -6.83503066	     11.12022791	      1.13391047	      0.96586025	     -0.31046284	      9.99990567	      8.12782222	    -10.17926364	    -15.00393976	      6.27720613	      0.28137619	     14.03189390	     -7.88982482	      8.72500475	    -24.30639970	     14.08329825	      6.21547770	     -0.92869912	      7.10842426	     -6.42013499
      1.62000000	     -2.01382617	     -6.88930382	     11.21087319	      1.13169468	      0.96588151	     -0.31035088	     10.08665495	      8.16369638	    -10.25759873	    -14.93093388	      6.14056333	      0.29038172	     14.00175865	     -8.01307302	      8.57421362	    -24.99019086	     14.40189243	      6.14531153	     -0.93196836	      7.17262560	     -6.43612106
